<svg width="26" height="25" viewBox="0 0 26 25" fill="none" xmlns="http://www.w3.org/2000/svg">
<path d="M10.4 3.11459C9.02087 3.11459 7.69823 3.61869 6.72304 4.516C5.74786 5.41331 5.2 6.63033 5.2 7.89931C5.2 9.1683 5.74786 10.3853 6.72304 11.2826C7.69823 12.1799 9.02087 12.684 10.4 12.684C11.7791 12.684 13.1018 12.1799 14.077 11.2826C15.0521 10.3853 15.6 9.1683 15.6 7.89931C15.6 6.63033 15.0521 5.41331 14.077 4.516C13.1018 3.61869 11.7791 3.11459 10.4 3.11459ZM2.6 7.89931C2.6 5.99583 3.42178 4.17031 4.88457 2.82435C6.34735 1.47838 8.33131 0.722229 10.4 0.722229C12.4687 0.722229 14.4526 1.47838 15.9154 2.82435C17.3782 4.17031 18.2 5.99583 18.2 7.89931C18.2 9.80279 17.3782 11.6283 15.9154 12.9743C14.4526 14.3202 12.4687 15.0764 10.4 15.0764C8.33131 15.0764 6.34735 14.3202 4.88457 12.9743C3.42178 11.6283 2.6 9.80279 2.6 7.89931ZM19.2764 2.82392C19.3971 2.7127 19.5405 2.62447 19.6983 2.56428C19.8561 2.50408 20.0253 2.47309 20.1961 2.47309C20.367 2.47309 20.5362 2.50408 20.694 2.56428C20.8518 2.62447 20.9952 2.7127 21.1159 2.82392C21.8403 3.49039 22.415 4.28164 22.8071 5.15248C23.1991 6.02332 23.4009 6.9567 23.4009 7.89931C23.4009 8.84192 23.1991 9.7753 22.8071 10.6461C22.415 11.517 21.8403 12.3082 21.1159 12.9747C20.9951 13.0858 20.8517 13.174 20.6939 13.2341C20.5361 13.2943 20.367 13.3253 20.1961 13.3253C20.0253 13.3253 19.8562 13.2943 19.6984 13.2341C19.5406 13.174 19.3972 13.0858 19.2764 12.9747C19.1556 12.8636 19.0598 12.7316 18.9944 12.5864C18.9291 12.4412 18.8954 12.2856 18.8954 12.1284C18.8954 11.9712 18.9291 11.8156 18.9944 11.6704C19.0598 11.5252 19.1556 11.3932 19.2764 11.2821C20.2512 10.3848 20.7989 9.16805 20.7989 7.89931C20.7989 6.63058 20.2512 5.41378 19.2764 4.51651C19.1555 4.40542 19.0596 4.2735 18.9942 4.12828C18.9288 3.98307 18.8951 3.82741 18.8951 3.67022C18.8951 3.51302 18.9288 3.35736 18.9942 3.21215C19.0596 3.06694 19.1555 2.93501 19.2764 2.82392ZM20.189 18.3743C20.2728 18.0668 20.4858 17.8025 20.7812 17.6395C21.0767 17.4764 21.4303 17.4279 21.7646 17.5046C23.491 17.9018 24.5843 18.9161 25.2122 20.074C25.8206 21.1925 26 22.4425 26 23.4497C26 23.7669 25.863 24.0712 25.6192 24.2955C25.3754 24.5198 25.0448 24.6458 24.7 24.6458C24.3552 24.6458 24.0246 24.5198 23.7808 24.2955C23.537 24.0712 23.4 23.7669 23.4 23.4497C23.4 22.6638 23.2544 21.8193 22.8878 21.1434C22.5407 20.5059 22.0077 20.0262 21.1341 19.8252C20.8 19.7481 20.5127 19.5521 20.3355 19.2803C20.1583 19.0085 20.1056 18.6818 20.189 18.3743ZM5.85 19.8611C4.212 19.8611 2.6 21.3121 2.6 23.4497C2.6 23.7669 2.46304 24.0712 2.21924 24.2955C1.97544 24.5198 1.64478 24.6458 1.3 24.6458C0.955218 24.6458 0.624558 24.5198 0.380761 24.2955C0.136964 24.0712 0 23.7669 0 23.4497C0 20.3013 2.4609 17.4688 5.85 17.4688H14.95C18.3391 17.4688 20.8 20.3013 20.8 23.4497C20.8 23.7669 20.663 24.0712 20.4192 24.2955C20.1754 24.5198 19.8448 24.6458 19.5 24.6458C19.1552 24.6458 18.8246 24.5198 18.5808 24.2955C18.337 24.0712 18.2 23.7669 18.2 23.4497C18.2 21.3121 16.588 19.8611 14.95 19.8611H5.85Z" fill="inherit"/>
</svg>
