<svg width="18" height="27" viewBox="0 0 18 27" fill="none" xmlns="http://www.w3.org/2000/svg">
<path d="M9 2.57937C9.89002 2.57937 10.76 2.85167 11.5001 3.36183C12.2401 3.872 12.8169 4.59711 13.1575 5.44548C13.4981 6.29386 13.5872 7.22738 13.4135 8.12801C13.2399 9.02863 12.8113 9.85591 12.182 10.5052C11.5526 11.1545 10.7508 11.5967 9.87791 11.7759C9.00499 11.955 8.10019 11.8631 7.27792 11.5117C6.45566 11.1603 5.75285 10.5652 5.25839 9.80166C4.76392 9.03815 4.5 8.1405 4.5 7.22223C4.5 5.99087 4.97411 4.80994 5.81802 3.93923C6.66193 3.06853 7.80653 2.57937 9 2.57937ZM9 0.722229C7.75398 0.722229 6.53594 1.10345 5.49991 1.81768C4.46388 2.53191 3.65639 3.54707 3.17956 4.73479C2.70273 5.92251 2.57797 7.22944 2.82105 8.49032C3.06414 9.75119 3.66416 10.9094 4.54523 11.8184C5.4263 12.7275 6.54885 13.3465 7.77093 13.5973C8.99301 13.8481 10.2597 13.7194 11.4109 13.2274C12.5621 12.7355 13.546 11.9024 14.2383 10.8334C14.9305 9.76452 15.3 8.50781 15.3 7.22223C15.3 5.49832 14.6363 3.84502 13.4548 2.62603C12.2733 1.40705 10.6709 0.722229 9 0.722229ZM18 26.7222H16.2V22.0794C16.2 21.4697 16.0836 20.8659 15.8575 20.3026C15.6313 19.7393 15.2998 19.2275 14.882 18.7964C14.4641 18.3652 13.968 18.0233 13.4221 17.7899C12.8761 17.5566 12.2909 17.4365 11.7 17.4365H6.3C5.10653 17.4365 3.96193 17.9257 3.11802 18.7964C2.27411 19.6671 1.8 20.848 1.8 22.0794V26.7222H0V22.0794C0 20.3555 0.663748 18.7022 1.84523 17.4832C3.02671 16.2642 4.62914 15.5794 6.3 15.5794H11.7C13.3709 15.5794 14.9733 16.2642 16.1548 17.4832C17.3363 18.7022 18 20.3555 18 22.0794V26.7222Z" fill="inherit"/>
</svg>
